<?xml version="1.0" standalone="no"?>
<!DOCTYPE svg PUBLIC "-//W3C//DTD SVG 20010904//EN"
 "http://www.w3.org/TR/2001/REC-SVG-20010904/DTD/svg10.dtd">
<svg version="1.0" xmlns="http://www.w3.org/2000/svg"
 width="700.000000pt" height="700.000000pt" viewBox="0 0 700.000000 700.000000"
 preserveAspectRatio="xMidYMid meet">
<metadata>
Created by potrace 1.14, written by Peter Selinger 2001-2017
</metadata>
<g transform="translate(0.000000,700.000000) scale(0.100000,-0.100000)"
fill="#000000" stroke="none">
<path d="M3382 4950 c-285 -52 -514 -262 -589 -540 -12 -44 -17 -102 -17 -180
0 -131 16 -205 68 -315 89 -188 247 -322 456 -386 108 -34 293 -34 400 0 255
79 440 270 507 521 24 89 24 272 0 360 -68 251 -275 460 -522 525 -75 19 -233
27 -303 15z m268 -197 c85 -23 168 -72 234 -139 212 -211 214 -552 6 -765
-168 -171 -411 -213 -628 -108 -334 161 -411 605 -151 869 143 146 340 198
539 143z"/>
<path d="M2575 3201 c-93 -23 -164 -80 -207 -169 -32 -64 -33 -71 -32 -182 2
-199 54 -335 181 -471 155 -164 345 -255 653 -311 171 -31 485 -31 665 1 297
52 494 147 648 310 127 136 179 272 181 471 1 111 0 118 -32 182 -35 72 -86
121 -157 154 -38 18 -87 19 -955 21 -503 0 -928 -2 -945 -6z m1817 -181 c20
-6 48 -24 62 -41 24 -28 26 -38 26 -129 0 -221 -101 -376 -319 -489 -175 -90
-385 -132 -661 -132 -212 0 -361 20 -513 71 -316 106 -467 284 -467 550 0 91
2 101 26 129 14 17 40 35 57 40 46 13 1742 14 1789 1z"/>
</g>
</svg>
